/* XPM */
static char *onex32[] = {
/* columns rows colors chars-per-pixel */
"32 32 220 2 ",
"   c #331D90",
".  c #341E90",
"X  c #341F93",
"o  c #351F93",
"O  c #331F95",
"+  c #2F209D",
"@  c #342097",
"#  c #352296",
"$  c #352297",
"%  c #352398",
"&  c #3022A0",
"*  c #3126A7",
"=  c #3127A9",
"-  c #3129AC",
";  c #3229AC",
":  c #322AAE",
">  c #322BB0",
",  c #332DB4",
"<  c #312EB4",
"1  c #332EB4",
"2  c #332FB4",
"3  c #332EB5",
"4  c #332FB5",
"5  c #342DB4",
"6  c #342EB4",
"7  c #342FB4",
"8  c #342EB5",
"9  c #3330B4",
"0  c #323DBA",
"q  c #333DBA",
"w  c #3D3AB8",
"e  c #1B42A3",
"r  c #1C43A1",
"t  c #1C42A2",
"y  c #1D45A6",
"u  c #1F47A8",
"i  c #214BAF",
"p  c #234BAE",
"a  c #234CAE",
"s  c #2F52A9",
"d  c #2F53A9",
"f  c #2F52AA",
"g  c #3053A9",
"h  c #244DB0",
"j  c #244FB4",
"k  c #3147BE",
"l  c #3247BE",
"z  c #3248BE",
"x  c #3349BF",
"c  c #364BBF",
"v  c #2F52B0",
"b  c #2E5AB5",
"n  c #2954BA",
"m  c #2D58BF",
"M  c #196FAB",
"N  c #1970AD",
"B  c #1C71AC",
"V  c #1972B0",
"C  c #1D76B4",
"Z  c #2576AE",
"A  c #2576AF",
"S  c #2677B0",
"D  c #2777B0",
"F  c #2D7BB1",
"G  c #207BBA",
"H  c #217CBA",
"J  c #227DBD",
"K  c #217EBE",
"L  c #4142B5",
"P  c #374CC0",
"I  c #394EC0",
"U  c #2E59C0",
"Y  c #2F5CC2",
"T  c #3251C1",
"R  c #3252C1",
"E  c #3352C2",
"W  c #3B50C1",
"Q  c #3C52C1",
"!  c #3F54C2",
"~  c #305BC3",
"^  c #325DC5",
"/  c #335DC5",
"(  c #325EC5",
")  c #335EC5",
"_  c #335FC5",
"`  c #325EC6",
"'  c #335EC6",
"]  c #325FC6",
"[  c #345FC5",
"{  c #345FC6",
"}  c #3D66C8",
"|  c #3D67C8",
" . c #3E67C8",
".. c #316BC9",
"X. c #316BCA",
"o. c #316CC9",
"O. c #326DCA",
"+. c #3E68C9",
"@. c #3877C9",
"#. c #3078CE",
"$. c #3079CE",
"%. c #3179CE",
"&. c #337ACE",
"*. c #337BCE",
"=. c #3B78CA",
"-. c #3B79CA",
";. c #3B7ACA",
":. c #3B7BCB",
">. c #397CCE",
",. c #3C7ECC",
"<. c #387ED0",
"1. c #4054C3",
"2. c #4155C3",
"3. c #8679BD",
"4. c #2498B1",
"5. c #2499B2",
"6. c #239CB5",
"7. c #269DB6",
"8. c #269EB7",
"9. c #289AB3",
"0. c #289CB5",
"q. c #289FB8",
"w. c #24A3BE",
"e. c #28A0B9",
"r. c #2482C3",
"t. c #2988CA",
"y. c #3382C1",
"u. c #3590C7",
"i. c #2D8DD0",
"p. c #2E8FD0",
"a. c #2E8ED1",
"s. c #3185D2",
"d. c #3285D2",
"f. c #3C81D0",
"g. c #3C81D1",
"h. c #3E82D1",
"j. c #3F82D1",
"k. c #3092D3",
"l. c #3091D4",
"z. c #3293D6",
"x. c #3293D7",
"c. c #3294D6",
"v. c #3394D6",
"b. c #3294D7",
"n. c #3394D7",
"m. c #3294D8",
"M. c #27A7C2",
"N. c #2BAECA",
"B. c #35A1DA",
"V. c #35A2DA",
"C. c #36A2DA",
"Z. c #37ADDD",
"A. c #36AEDD",
"S. c #37AEDD",
"D. c #37AEDE",
"F. c #38AEDD",
"G. c #3AAFDD",
"H. c #38AEDE",
"J. c #31B5D1",
"K. c #31B6D3",
"L. c #32B8D4",
"P. c #3AB0DE",
"I. c #3EB1DE",
"U. c #35BCD8",
"Y. c #36BDDA",
"T. c #3AB9E0",
"R. c #3AB9E1",
"E. c #3ABAE1",
"W. c #3CBAE1",
"Q. c #4486D3",
"!. c #7684CC",
"~. c #40B6D5",
"^. c #40B2DF",
"/. c #44B3DF",
"(. c #44B4DF",
"). c #45B4DF",
"_. c #46B4E0",
"`. c #48B5E0",
"'. c #49B5E0",
"]. c #3BC5E1",
"[. c #3DC5E3",
"{. c #3DC7E3",
"}. c #3DC7E5",
"|. c #3EC7E5",
" X c #3DC8E4",
".X c #3EC8E5",
"XX c #3EC9E5",
"oX c #3EC8E6",
"OX c #3EC9E6",
"+X c #46C7DC",
"@X c #41C9E5",
"#X c #41C9E6",
"$X c #41D3E6",
"%X c #41D3E7",
"&X c #43D2E6",
"*X c #43D7E6",
"=X c #43D8E6",
"-X c #43DFE8",
";X c #44DEE8",
":X c #44DFE8",
">X c #45DFE8",
",X c #44DFE9",
"<X c #45DFE9",
"1X c #46DFE9",
"2X c #48DFE9",
"3X c #6ADEEB",
"4X c #44E0E9",
"5X c #45E0E9",
"6X c #4AE1E9",
"7X c #4DE1EA",
"8X c #4FE1EA",
"9X c #50E1EA",
"0X c #52E2EA",
"qX c #56E2EB",
"wX c #6CE6ED",
"eX c #90ECF2",
"rX c #BFF4F7",
"tX c #ECFDFD",
"yX c #F4F4F9",
"uX c None",
/* pixels */
"uXuXuXuXuXuXuXuXuXuXuXuX'.).I.).'.I.).).uXuXuXuXuXuXuXuXuXuXuXuX",
"uXuXuXuXuXuXuXZ M u.I.H.H.H.H.H.Z.Z.Z.Z.P.I.~.6.4.uXuXuXuXuXuXuX",
"uXuXuXuXuXuXZ V r.l.B.Z.H.H.H.H.Z.P.P.Z.Z.R.[.U.w.4.uXuXuXuXuXuX",
"uXuXuXuXuXS G i.m.m.c.C.H.H.H.H.Z.A.A.Z.E.[.oXoX].N.8.uXuXuXuXuX",
"uXuXuXuXS J l.m.m.m.m.c.C.Z.H.H.H.A.Z.E.oXoXoXoX#XXXJ.e.uXuXuXuX",
"uXuXuXF H l.m.l.l.m.m.m.c.C.Z.Z.P.A.E.oXoXoXoXXXoXXXXXL.e.uXuXuX",
"uXuXuXC i.m.m.m.m.m.l.m.l.m.C.Z.A.E.XXoXoXoXoXXXoXoXXXXXJ.0.uXuX",
"uXuXN t.m.m.m.m.m.m.m.m.c.m.c.C.W.XXXXXXoX[.oX[.oXoXXXXX[.M.9.uX",
"uXB J m.m.m.l.m.m.l.m.m.m.c.c.uXuX#XoXXXoXoXoXoXoXoXoXoXoXY.8.uX",
"uXy.i.m.m.m.m.m.m.m.m.m.c.n.uXuXuXuX#XXX[.oXoXoXoXoXoXXXoX[.+XuX",
"uX<.s.m.m.m.m.m.m.m.m.l.n.uXuXuXuXuXuX#XoXoXoXoXoXoXoXXXXX$X6XuX",
"uX*.%.s.l.m.m.m.l.m.m.m.uXuXuXuXuXuXuXuX#XoXoXoX[.oX[.XX$X1X1XuX",
"j.%.%.#.s.m.c.l.m.m.c.uXuXuXuXuXuXuXuXuXuX#XXXXXXXXXoX%X;X;X1X8X",
"j.%.%.#.#.s.c.m.m.c.uXuXuXuXuXuXuXuXuXuXuXuX#XXXXXoX%X;X;X1X;X8X",
"j.#.#.#.#.#.s.c.c.uXuXuXuXuXuXuXuXuXuXuXuXuXuX#XXX%X;X5X;X1X;X9X",
"Q.#.#.%.%.#.$.s.uXuXuXuXuXuXuXuXuXuXuXuXuXuXuXuX%X;X;X;X1X1X;X8X",
"Q.$.$.$.$.$.$.O. .uXuXuXuXuXuXuXuXuXuXuXuXuXuXuX,.=X1X1X1X;X;X8X",
"j.$.$.$.$.$...{ { uXuXuXuXuXuXuXuXuXuXuXuXuXuX7 1 :.*X1X;X1X;XqX",
"g.$.$.$.$...^ ' { {  .uXuXuXuXuXuXuXuXuXuXuX7 7 7 1 :.*X5X5X;XwX",
"j.$.$.$...' ' ' { ^ {  .uXuXuXuXuXuXuXuXuX7 , , 7 1 7 :.=X5X;XeX",
"uX$.%.X.{ ' ' ' ' ' ' { } uXuXuXuXuXuXuX7 1 , 7 7 , 7 1 @.=X6XrX",
"uX<.X.{ ' ' ' ' ' ' ' ^ {  .uXuXuXuXuX7 1 7 5 7 , , 7 1 1 @.3XtX",
"uXb ~ ^ ' ' ' ' ' ' ' ' ^ { } uXuXuX7 1 7 7 7 5 7 , 1 1 1 < !.yX",
"uXr j ^ ' ' ' ' ' ' ' ' ' ' ' } w 7 1 7 7 7 , 7 , 7 1 1 1 , @ 3.",
"uXf y U ^ ^ { ' ' ' ' ' ' ' ~ R q 7 , 7 , 7 7 , , 7 7 7 , &   uX",
"uXuXf a ~ ^ ' ' ' ' ' ' ^ ^ T k l 0 1 1 7 , , 7 7 , 7 7 = O uXuX",
"uXuXuXf h ~ ' ' ' ' ^ ^ { T k k l l 0 7 , , 7 7 , 7 7 ; @ uXuXuX",
"uXuXuXuXf h U ' ^ { ^ ^ R P k k l l l 0 7 7 7 7 7 , ; @ uXuXuXuX",
"uXuXuXuXuXg u n ^ ^ ^ R l l l l l k l l q 7 7 7 , * % uXuXuXuXuX",
"uXuXuXuXuXuXg e i m R l l l l l l l k k l q 1 : + # uXuXuXuXuXuX",
"uXuXuXuXuXuXuXg r v Q c z l z l l z k l c Q L O . uXuXuXuXuXuXuX",
"uXuXuXuXuXuXuXuXuXuXuXuXuX! 2.P P Q 1.uXuXuXuXuXuXuXuXuXuXuXuXuX"
};
