/* XPM */
static char *onex16[] = {
/* columns rows colors chars-per-pixel */
"16 16 107 2 ",
"   c #3D2896",
".  c #3326A4",
"X  c #3429A9",
"o  c #3B30A3",
"O  c #332DB1",
"+  c #332FB4",
"@  c #342DB4",
"#  c #342EB4",
"$  c #342FB4",
"%  c #3430B2",
"&  c #3430B5",
"*  c #3835B6",
"=  c #323CB9",
"-  c #333CBA",
";  c #264EAF",
":  c #2A4EAC",
">  c #2A53AF",
",  c #3147BE",
"<  c #354ABF",
"1  c #354BBF",
"2  c #2850B2",
"3  c #2B53B6",
"4  c #2C56BD",
"5  c #2D59BF",
"6  c #247DBB",
"7  c #257FBE",
"8  c #2B7CB9",
"9  c #374CC0",
"0  c #3A4FC1",
"q  c #3252C1",
"w  c #3252C2",
"e  c #3A50C0",
"r  c #305BC3",
"t  c #315CC4",
"y  c #335DC5",
"u  c #335EC6",
"i  c #335FC6",
"p  c #3861C6",
"a  c #3862C7",
"s  c #3863C7",
"d  c #3864C7",
"f  c #316BCA",
"g  c #326CCA",
"h  c #3078CE",
"j  c #3178CE",
"k  c #3079CE",
"l  c #3179CE",
"z  c #307ACE",
"x  c #377BCE",
"c  c #357CCF",
"v  c #377FD0",
"b  c #387ED0",
"n  c #7D7DC4",
"m  c #2A82BB",
"M  c #2884C3",
"N  c #2C8ACD",
"B  c #2D8DCF",
"V  c #3B80CC",
"C  c #3C82CD",
"Z  c #3186D2",
"A  c #3090D3",
"S  c #3091D5",
"D  c #3293D7",
"F  c #3294D7",
"G  c #3294D8",
"H  c #2EAFCA",
"J  c #33AAC5",
"K  c #37B2C9",
"L  c #31B2CD",
"P  c #35A1DA",
"I  c #37ADDD",
"U  c #37AEDE",
"Y  c #38ADDD",
"T  c #38AEDE",
"R  c #38AFDE",
"E  c #34B7D2",
"W  c #3BB0DE",
"Q  c #3CB0DE",
"!  c #3DB0DE",
"~  c #3EB0DE",
"^  c #3FB3DF",
"/  c #3ABAE1",
"(  c #3BBAE1",
")  c #3AC1DE",
"_  c #3BC3DF",
"`  c #3DC7E4",
"'  c #3EC7E5",
"]  c #3EC8E5",
"[  c #3FC8E5",
"{  c #3EC9E5",
"}  c #3FC9E5",
"|  c #41D3E7",
" . c #42D2E6",
".. c #41D4E7",
"X. c #43D9E7",
"o. c #44D9E7",
"O. c #44DEE8",
"+. c #44DFE9",
"@. c #45DFE9",
"#. c #49DFE9",
"$. c #45E0E9",
"%. c #48E0E9",
"&. c #4AE0E9",
"*. c #4BE0E9",
"=. c #5FE5EC",
"-. c #8EE5F0",
";. c None",
/* pixels */
";.;.;.;.m ~ ! ! ! ! ! J ;.;.;.;.",
";.;.;.7 B P T T T U ( ) H ;.;.;.",
";.;.M S G G P T T ( ` ] ] E ;.;.",
";.7 S S G S F P ( ] ] ] ] ] L ;.",
"8 N G G S G F ;.;.[ ] ] ] ] _ K ",
"b Z F G G G ;.;.;.;.[ ] ] ] ..&.",
"c l Z S F ;.;.;.;.;.;.] ] | +.&.",
"b l l Z ;.;.;.;.;.;.;.;.| +.+.&.",
"b l j g d ;.;.;.;.;.;.;.C o.+.#.",
"c j g i i p ;.;.;.;.;.@ & C o.=.",
"x g i i i i p ;.;.;.$ $ $ % C -.",
"2 5 i i i i i p * $ $ $ $ @ @ n ",
";.2 y i i i i w - $ @ @ $ @ .   ",
";.;.3 r i y w , , - % @ @ X ;.;.",
";.;.;.; 4 w , , , , - @ . ;.;.;.",
";.;.;.;.: e 9 1 1 1 0 o ;.;.;.;."
};
