/* XPM */
static char *onex64[] = {
/* columns rows colors chars-per-pixel */
"64 64 160 2 ",
"   c #2D168C",
".  c #2F198C",
"X  c #301B8E",
"o  c #2D1790",
"O  c #2E1A93",
"+  c #2F1E99",
"@  c #301F9A",
"#  c #133C9E",
"$  c #2F209E",
"%  c #3F2B97",
"&  c #30219F",
"*  c #153EA1",
"=  c #3024A3",
"-  c #332AAD",
";  c #3C34AF",
":  c #342EB4",
">  c #3330B5",
",  c #323FBB",
"<  c #412C97",
"1  c #422E98",
"2  c #443099",
"3  c #1740A2",
"4  c #1C43A2",
"5  c #1D46AA",
"6  c #2046A3",
"7  c #3658AC",
"8  c #244EB2",
"9  c #3147BE",
"0  c #344ABF",
"q  c #3B49BE",
"w  c #2751B7",
"e  c #2B55BB",
"r  c #2D58BF",
"t  c #3252B3",
"y  c #1169A7",
"u  c #146CA9",
"i  c #196EAB",
"p  c #1670AF",
"a  c #1C70AC",
"s  c #1771B0",
"d  c #1974B3",
"f  c #1C78B7",
"g  c #1D79B9",
"h  c #2375AE",
"j  c #3061BD",
"k  c #2277B2",
"l  c #247BB8",
"z  c #337FB4",
"x  c #4947BC",
"c  c #4464B2",
"v  c #4867B3",
"b  c #4C6BB5",
"n  c #354DC0",
"m  c #394FC0",
"M  c #2E5AC1",
"N  c #3251C1",
"B  c #3B50C1",
"V  c #335EC6",
"C  c #3460C6",
"Z  c #3A6CC6",
"A  c #326BC9",
"S  c #2E77CD",
"D  c #2F78CD",
"F  c #3077CC",
"G  c #3B72C8",
"H  c #3179CE",
"J  c #357CD0",
"K  c #4559C4",
"L  c #4E61C7",
"P  c #476ECA",
"I  c #486FCB",
"U  c #5B6CCB",
"Y  c #4970CB",
"T  c #6272CE",
"R  c #8478BD",
"E  c #8A7DBF",
"W  c #8B7FC3",
"Q  c #1B94AE",
"!  c #1E96B0",
"~  c #1E99B4",
"^  c #3580B5",
"/  c #3C85B7",
"(  c #2097B0",
")  c #259AB3",
"_  c #2F9DB5",
"`  c #239FB9",
"'  c #23A2BD",
"]  c #3DA5BA",
"[  c #458ABA",
"{  c #42A6BC",
"}  c #49AABF",
"|  c #2482C3",
" . c #2B8BCC",
".. c #3382C8",
"X. c #2E8FD1",
"o. c #3184D1",
"O. c #3E82D1",
"+. c #2F90D3",
"@. c #3293D7",
"#. c #3293D8",
"$. c #29ABC6",
"%. c #2BAFCB",
"&. c #2EB3CF",
"*. c #35B3CE",
"=. c #3CA0D5",
"-. c #36A1DA",
";. c #39A2DA",
":. c #37AEDD",
">. c #38AEDE",
",. c #31B7D3",
"<. c #31B8D4",
"1. c #3DBBD7",
"2. c #3CB0DE",
"3. c #35BDDA",
"4. c #39B7E0",
"5. c #3AB8E0",
"6. c #4385D2",
"7. c #4788D4",
"8. c #4988D3",
"9. c #508CD3",
"0. c #5B95D8",
"q. c #6299DA",
"w. c #45B4DF",
"e. c #42BADE",
"r. c #47B5E0",
"t. c #49B5E0",
"y. c #40BAE1",
"u. c #53B9E2",
"i. c #5ABDE3",
"p. c #37C0DC",
"a. c #38C1DE",
"s. c #3DC6E4",
"d. c #3EC8E5",
"f. c #47CBE6",
"g. c #48CBE6",
"h. c #42D3E6",
"j. c #42DFE7",
"k. c #44DFE9",
"l. c #49DFE9",
"z. c #6BC3E6",
"x. c #44E1E9",
"c. c #4BE0E9",
"v. c #53E2EB",
"b. c #5CE3EC",
"n. c #65E4ED",
"m. c #69E5ED",
"M. c #75E7EE",
"N. c #86EAF1",
"B. c #8CEBF1",
"V. c #91EEF2",
"C. c #B1F1F6",
"Z. c #B8F3F7",
"A. c #CBEAF5",
"S. c #CDF6F9",
"D. c #F0EFF7",
"F. c #E3FAFC",
"G. c #E9FBFC",
"H. c #F4F2F9",
"J. c #FEFFFF",
"K. c None",
/* pixels */
"K.K.K.K.K.K.K.K.K.K.K.K.K.K.K.K.K.K.K.K.K.K.K.K.K.K.K.K.u.r.u.z.z.i.y.u.K.K.K.K.K.K.K.K.K.K.K.K.K.K.K.K.K.K.K.K.K.K.K.K.K.K.K.K.",
"K.K.K.K.K.K.K.K.K.K.K.K.K.K.K.K./ K.K.K.K.K.K.i.t.t.2.2.>.:.:.:.:.:.:.:.2.>.2.t.u.K.K.K.K.K.K.] { K.K.K.K.K.K.K.K.K.K.K.K.K.K.K.",
"K.K.K.K.K.K.K.K.K.K.K.K.K.K.K.^ u a K.K.K.w.>.>.:.:.>.>.>.>.>.>.:.:.:.:.:.:.>.>.:.>.w.i.K.K.) Q ! { K.K.K.K.K.K.K.K.K.K.K.K.K.K.",
"K.K.K.K.K.K.K.K.K.K.K.K.K.K.^ u y u l =.>.:.>.:.:.>.>.>.>.>.:.>.:.:.:.:.:.>.>.>.:.:.:.>.e.*.' Q Q ( { K.K.K.K.K.K.K.K.K.K.K.K.K.",
"K.K.K.K.K.K.K.K.K.K.K.K.K.^ i y p | X.@.-.>.:.:.:.>.>.>.>.>.>.>.>.>.>.>.>.>.>.:.:.:.:.5.s.s.a.%.~ Q Q { K.K.K.K.K.K.K.K.K.K.K.K.",
"K.K.K.K.K.K.K.K.K.K.K.K.^ u u g  .@.@.@.@.-.>.:.:.>.>.>.>.>.>.>.>.>.>.>.>.>.>.>.:.:.5.s.s.s.s.s.,.' Q ~ ] K.K.K.K.K.K.K.K.K.K.K.",
"K.K.K.K.K.K.K.K.K.K.K.^ u s | @.@.@.@.@.@.@.-.>.:.>.>.>.>.>.>.>.>.>.>.>.>.:.>.>.:.5.s.d.s.d.s.d.d.a.$.Q ( { K.K.K.K.K.K.K.K.K.K.",
"K.K.K.K.K.K.K.K.K.K.^ u g X.#.#.@.@.@.@.@.@.@.;.>.:.:.>.>.>.>.>.>.>.>.>.:.:.:.:.5.s.d.d.d.d.d.d.s.s.s.&.~ ~ ] K.K.K.K.K.K.K.K.K.",
"K.K.K.K.K.K.K.K.K.^ u g +.@.@.@.@.#.@.#.@.@.@.@.-.:.:.:.>.>.>.>.>.>.>.>.:.:.:.5.s.s.s.f.s.d.d.d.d.d.d.d.<.` ! ] K.K.K.K.K.K.K.K.",
"K.K.K.K.K.K.K.K.^ u g X.@.@.@.@.@.@.@.@.@.@.@.@.@.-.:.:.>.>.>.>.>.>.>.>.:.:.5.s.s.s.d.d.d.d.d.d.d.d.d.d.s.3.$.! ] K.K.K.K.K.K.K.",
"K.K.K.K.K.K.K.[ i f X.@.@.@.@.@.@.@.@.@.@.@.@.@.@.@.-.:.:.>.>.:.>.:.:.>.4.5.s.d.d.d.d.d.d.d.d.d.d.d.d.d.d.d.a.' ( ] K.K.K.K.K.K.",
"K.K.K.K.K.K.K.a d X.@.@.@.@.@.@.@.@.@.@.@.@.@.#.@.@.@.-.>.:.:.:.>.:.:.:.5.s.d.d.d.d.d.d.d.d.d.d.d.d.d.d.d.d.d.a.' ( { K.K.K.K.K.",
"K.K.K.K.K.K.a u  .@.@.@.@.@.@.@.@.@.@.@.@.@.@.@.@.@.@.@.-.:.:.:.:.:.:.5.s.s.d.d.d.d.d.d.d.d.d.d.d.d.d.d.h.s.s.d.3.` ( } K.K.K.K.",
"K.K.K.K.K.a u | +.@.@.#.@.@.@.@.@.+.@.@.@.@.@.@.@.@.@.@.@.-.>.>.:.:.5.s.d.d.s.d.d.d.d.d.d.d.d.d.d.d.d.d.s.d.s.s.s.,.~ ( } K.K.K.",
"K.K.K.K.a y g +.@.@.@.@.@.@.#.@.@.@.@.@.@.@.@.@.@.@.@.@.@.@.;.>.:.4.s.s.d.d.d.d.s.d.d.d.d.d.d.d.d.s.d.d.d.d.d.d.s.s.$.Q ) K.K.K.",
"K.K.K.a y d  .@.@.@.@.#.@.#.@.@.@.@.@.@.@.@.@.@.@.@.@.@.@.@.@.>.5.f.s.s.d.d.d.d.s.d.d.d.d.d.d.d.d.f.d.d.d.d.d.d.s.s.3.) Q ) K.K.",
"K.K.a u u | #.#.#.#.#.#.#.#.#.#.#.#.#.#.#.#.#.#.@.@.@.@.@.@.@.K.K.g.d.d.d.d.d.d.d.d.d.d.d.d.d.d.d.d.d.d.d.d.d.d.d.d.d.%.Q Q _ K.",
"K.K.h u f +.@.@.#.#.#.+.#.#.#.#.#.+.+.#.#.#.#.#.@.@.@.@.@.@.K.K.K.K.f.d.d.d.d.d.d.d.d.d.d.d.d.d.d.d.d.d.d.d.d.d.d.d.d.a.$._ K.K.",
"K.K.K.k  .#.@.@.+.#.@.@.#.#.+.#.#.#.#.#.#.#.+.#.@.@.@.@.@.K.K.K.K.K.K.f.d.d.d.d.d.d.d.d.d.d.d.d.d.d.d.d.d.d.d.d.d.d.d.s.1.K.K.K.",
"K.K.K...X.@.@.#.@.#.@.@.#.@.#.#.#.#.#.#.#.#.#.#.@.@.@.@.K.K.K.K.K.K.K.K.f.d.d.d.d.d.d.d.d.d.d.d.d.d.d.d.d.d.d.d.d.d.d.d.h.K.K.K.",
"K.K.8.H o.@.@.@.@.@.@.@.@.@.@.@.@.@.@.@.#.#.#.#.@.@.@.K.K.K.K.K.K.K.K.K.K.g.d.d.d.d.d.d.d.d.d.d.d.d.d.d.d.d.d.d.s.s.s.h.k.v.K.K.",
"K.K.O.H D o.@.@.@.@.@.@.@.@.@.@.@.@.@.@.#.+.#.#.@.@.K.K.K.K.K.K.K.K.K.K.K.K.g.d.d.d.d.d.d.d.d.d.d.d.d.d.d.d.d.d.s.s.h.k.k.l.K.K.",
"K.K.J D D H o.@.@.@.@.@.#.@.@.@.@.@.@.@.@.@.@.+.@.K.K.K.K.K.K.K.K.K.K.K.K.K.K.g.d.d.d.d.d.d.d.d.d.d.d.d.d.s.d.d.s.h.k.k.k.k.K.K.",
"K.7.H H H D D o.@.@.@.#.@.@.@.@.@.@.@.@.@.@.@.@.K.K.K.K.K.K.K.K.K.K.K.K.K.K.K.K.g.d.d.d.d.d.d.d.d.d.d.d.d.d.d.d.h.x.k.k.k.k.v.K.",
"K.6.D H H H H H o.@.@.@.@.@.@.@.@.@.@.@.@.@.@.K.K.K.K.K.K.K.K.K.K.K.K.K.K.K.K.K.K.f.d.d.d.d.d.d.d.d.d.d.d.d.s.h.k.x.k.k.k.k.c.K.",
"K.J D H H H H H H o.@.@.@.@.@.@.@.@.@.@.@.=.K.K.K.K.K.K.K.K.K.K.K.K.K.K.K.K.K.K.K.K.g.d.d.d.d.d.d.d.d.d.d.s.h.k.k.k.k.x.k.k.l.K.",
"K.J D H H H H H H H o.@.@.@.@.@.@.@.@.@.@.K.K.K.K.K.K.K.K.K.K.K.K.K.K.K.K.K.K.K.K.K.K.g.d.d.d.d.d.d.d.d.d.h.k.k.k.k.k.k.k.k.l.K.",
"K.H H H H H H H S H S o.@.@.@.@.@.@.@.@.K.K.K.K.K.K.K.K.K.K.K.K.K.K.K.K.K.K.K.K.K.K.K.K.g.d.d.d.d.d.d.d.h.k.k.k.k.k.k.k.x.k.k.v.",
"8.H H H H H H H H H S H o.@.@.@.@.@.@.K.K.K.K.K.K.K.K.K.K.K.K.K.K.K.K.K.K.K.K.K.K.K.K.K.K.g.d.d.d.d.d.h.k.k.k.k.k.k.l.k.k.k.k.m.",
"q.S H H H H H H H H H H H o.+.@.@.@.K.K.K.K.K.K.K.K.K.K.K.K.K.K.K.K.K.K.K.K.K.K.K.K.K.K.K.K.g.d.d.d.h.j.k.k.k.k.l.k.k.k.l.k.k.n.",
"q.D H H H H H H H H H H H H o.@.@.K.K.K.K.K.K.K.K.K.K.K.K.K.K.K.K.K.K.K.K.K.K.K.K.K.K.K.K.K.K.g.d.h.j.k.k.k.k.k.l.k.k.k.k.k.k.b.",
"0.S D H H H H H H H H S H H F o.K.K.K.K.K.K.K.K.K.K.K.K.K.K.K.K.K.K.K.K.K.K.K.K.K.K.K.K.K.K.K.K.h.j.k.k.k.k.k.l.k.k.x.k.k.k.k.b.",
"0.S H H H H H H H H H S S J J A K.K.K.K.K.K.K.K.K.K.K.K.K.K.K.K.K.K.K.K.K.K.K.K.K.K.K.K.K.K.K.K.G h.x.l.k.k.k.k.k.l.k.k.k.k.k.b.",
"q.S H H H H H H H S J H S H A V C K.K.K.K.K.K.K.K.K.K.K.K.K.K.K.K.K.K.K.K.K.K.K.K.K.K.K.K.K.K.> > G h.x.k.k.k.k.l.k.k.k.l.k.k.b.",
"0.S H H H H H H H H J S J A V V C C K.K.K.K.K.K.K.K.K.K.K.K.K.K.K.K.K.K.K.K.K.K.K.K.K.K.K.K.; > : : G h.x.k.k.k.k.k.k.k.k.k.k.n.",
"7.H H H H H H H H H S S A V V V V V C Y K.K.K.K.K.K.K.K.K.K.K.K.K.K.K.K.K.K.K.K.K.K.K.K.K.: : : : : : G h.x.k.k.k.k.k.l.k.k.j.M.",
"K.H H H H H H H H H H A V V V V V V V C Y K.K.K.K.K.K.K.K.K.K.K.K.K.K.K.K.K.K.K.K.K.K.K.: : : : : : : : A h.k.k.k.k.k.l.k.k.k.B.",
"K.J H H H H H H H S A V V V V V V C V V C P K.K.K.K.K.K.K.K.K.K.K.K.K.K.K.K.K.K.K.K.K.> : : : : : : : : : Z h.k.k.k.k.k.k.k.x.C.",
"K.J H H H H H H S A V V V V V V V V V V V C Y K.K.K.K.K.K.K.K.K.K.K.K.K.K.K.K.K.K.K.: : : : : : : : : : : : Z h.x.k.k.k.k.k.v.S.",
"K.6.H H H H H H A V V V V V V V V V V V V C C Y K.K.K.K.K.K.K.K.K.K.K.K.K.K.K.K.K.: : : : : : : : : : : : : : Z h.x.k.k.k.k.n.G.",
"K.8.H H H H H A V V V V V V V V V V V V V V V C P K.K.K.K.K.K.K.K.K.K.K.K.K.K.K.> : : : : : : : : : : : : : : : Z h.k.j.j.j.N.J.",
"K.K.H S H H A V V V V V V V V V V V V V V C V V C P K.K.K.K.K.K.K.K.K.K.K.K.K.> > > : : : : : : : : : : : : : : : Z h.k.k.k.Z.J.",
"K.K.6.H S A V V V V V V V V V V V V V V V V V V V C Y K.K.K.K.K.K.K.K.K.K.K.: : : : : : : : : : : : : : : : : : : : C h.x.b.F.J.",
"K.K.9.H A V V V V V V V V V V V V V V V V V V V V V C P K.K.K.K.K.K.K.K.K.: : : : : : : : : : : : : : : : : : : : : : Z h.B.J.J.",
"K.K.K.j V V V V V V V V V V V V V V V V V V V V V V V V Y K.K.K.K.K.K.K.> > : : > : : : : : : : : : : : : : : : : : : : P A.J.J.",
"K.K.7 5 V V V V V V V V V V V V V V C V V V V V V V V V C Y K.K.K.K.K.: : > : : : : : : : : : : : : : : : : : : : : : : - W H.J.",
"K.K.* # 8 V V V V V V V V V V C V C V V V V V V V V V V V V P K.K.K.> : : : : : : : : : : : : : : : : : : : : : : : : : $ . E D.",
"K.b 3 # * w V V V V V V V V V V V V V V V V V V V V V V V V V P x > > > : : : : : : : : : > : : : : : : : : : : : : : - o   X R ",
"K.K.v 4 # 5 V V V V V V V V V V V V V V V V V C V V V C V V V N , : : : : : : : : : : : : : : : : : : : : : : : : : : @     < K.",
"K.K.K.v 6 # w V V V V V V V V V V V V V C V V V V V V V V V N 9 9 , : : : : : : : : : : : : : : : : : : : : : : : : =     1 K.K.",
"K.K.K.K.v 4 3 r V V V V V V V V V V V V V V V V V V V V V N 9 9 9 9 9 : : : : : : : : : : : : : : : : : : : : : : - o   1 K.K.K.",
"K.K.K.K.K.v 4 5 r V V V V C C V V V V V V V C V V V V V N 9 9 n n 9 9 , : : : : : : : : : > : : : : : : : : : : : +   < K.K.K.K.",
"K.K.K.K.K.K.v 4 5 M C V V V V V V V V V V V V V V V V N 9 9 9 9 9 9 9 9 , : : : : : : : : : : : : : : : : : : : @   1 K.K.K.K.K.",
"K.K.K.K.K.K.K.c 4 5 M V V V V V V V V V V V V V V V N 9 9 9 9 9 9 9 9 9 n , : : : > : : : > : : : : : : : : : &   1 K.K.K.K.K.K.",
"K.K.K.K.K.K.K.K.v * 5 M V V V V V V V V V V V V V N 9 9 9 9 9 9 9 9 9 9 9 9 , : : : : : : : : : : : : : : : =   1 K.K.K.K.K.K.K.",
"K.K.K.K.K.K.K.K.K.v 4 * e V V V V V V V V V V V n 9 9 9 9 9 9 9 9 9 9 9 9 9 9 q > : : : : : : : : : : > : = . 1 K.K.K.K.K.K.K.K.",
"K.K.K.K.K.K.K.K.K.K.b 4 * 8 V V V V V V V V V N n 9 9 9 9 9 9 9 9 9 9 9 9 9 9 9 , : : : : : : : : : : : @   1 K.K.K.K.K.K.K.K.K.",
"K.K.K.K.K.K.K.K.K.K.K.b 4 * 5 r V V V V V V N 9 9 9 9 9 9 9 9 9 9 9 9 9 9 9 9 N 9 9 : : : : : : : : - O   1 K.K.K.K.K.K.K.K.K.K.",
"K.K.K.K.K.K.K.K.K.K.K.K.b 6 # * w M V C V N 9 9 9 9 9 9 9 9 9 9 9 9 9 9 9 9 9 9 9 9 , : : : : : : = o   2 K.K.K.K.K.K.K.K.K.K.K.",
"K.K.K.K.K.K.K.K.K.K.K.K.K.b 6 # # 5 w r 0 9 9 9 9 9 9 9 9 9 9 9 9 9 9 9 9 9 9 9 9 9 9 9 : : : = o     2 K.K.K.K.K.K.K.K.K.K.K.K.",
"K.K.K.K.K.K.K.K.K.K.K.K.K.K.K.6 # # 4 t 0 9 9 9 9 9 9 9 9 9 9 9 9 9 9 n 9 9 9 9 9 9 9 0 q ; +       2 K.K.K.K.K.K.K.K.K.K.K.K.K.",
"K.K.K.K.K.K.K.K.K.K.K.K.K.K.K.b 4 4 c K.K.K B 0 9 9 9 9 9 9 9 9 9 9 9 n 9 9 9 9 0 B K K.K.K.<     1 K.K.K.K.K.K.K.K.K.K.K.K.K.K.",
"K.K.K.K.K.K.K.K.K.K.K.K.K.K.K.K.K.K.K.K.K.K.K.K.L K m n n n 9 9 9 9 n n m B B K K.K.K.K.K.K.K.2 2 K.K.K.K.K.K.K.K.K.K.K.K.K.K.K.",
"K.K.K.K.K.K.K.K.K.K.K.K.K.K.K.K.K.K.K.K.K.K.K.K.K.K.K.K.K.U L K K K U K.K.K.K.K.K.K.K.K.K.K.K.K.K.K.K.K.K.K.K.K.K.K.K.K.K.K.K.K."
};
